<svg xmlns="http://www.w3.org/2000/svg" viewBox="0 0 21.971 21.971"><path d="M17.872 13.964c-1.272 0-2.394.606-3.127 1.534l-6.8-3.477c.09-.33.154-.674.154-1.035 0-.393-.077-.763-.183-1.123l6.77-3.46c.728.97 1.88 1.603 3.186 1.603 2.214 0 4.005-1.79 4.005-4.003 0-2.21-1.79-4.002-4.005-4.002-2.21 0-4.002 1.792-4.002 4.002 0 .362.065.706.155 1.04L7.227 8.517C6.493 7.588 5.37 6.98 4.095 6.98 1.883 6.98.093 8.775.093 10.986s1.79 4.003 4.002 4.003c1.31 0 2.46-.636 3.19-1.607l6.767 3.462c-.106.36-.183.732-.183 1.126 0 2.21 1.792 4.003 4 4.003 2.215 0 4.006-1.79 4.006-4.002 0-2.213-1.79-4.004-4.004-4.004z" fill="#010002"/></svg>