<svg xmlns="http://www.w3.org/2000/svg" viewBox="0 0 23.303 23.303"><g fill="#010002"><path d="M3.855 10.853l.897 3.338h1.32l1.67-5.187H6.383l-.99 3.4-.868-3.4H3.2l-.894 3.4-.972-3.4H0l1.642 5.188h1.336M12.307 9.003h-1.324l-.896 3.4-.976-3.4H7.778l1.645 5.188h1.337l.877-3.337.9 3.338h1.317l1.67-5.187h-1.355l-.996 3.4M21.946 9.003l-.993 3.4-.866-3.4H18.76l-.896 3.4-.97-3.4h-1.337l1.646 5.188h1.335l.878-3.337.896 3.338h1.322l1.67-5.187M11.65 1.658C7.64 1.658 4.187 4.03 2.6 7.442h18.107c-1.59-3.412-5.04-5.784-9.054-5.784zM11.65 21.645c4.015 0 7.463-2.37 9.054-5.784H2.6c1.588 3.413 5.038 5.785 9.05 5.785z"/></g></svg>